# Blender v3.4.1 OBJ File: ''
# www.blender.org
o Crystal02_Untitled.012
v 0.282833 1.602950 -0.383690
v 0.282833 1.602950 -0.383690
v 0.282833 1.602950 -0.383690
v 0.372179 1.554777 -0.334934
v 0.372179 1.554777 -0.334934
v 0.372179 1.554777 -0.334934
v 0.414344 -1.398700 -0.310159
v 0.414344 -1.398700 -0.310159
v 0.414344 -1.398700 -0.310159
v 0.414344 -1.398700 -0.310159
v 0.040890 -1.424330 -0.585457
v 0.040890 -1.424330 -0.585457
v 0.040890 -1.424330 -0.585457
v 0.040890 -1.424330 -0.585457
v -0.052332 1.517458 -0.576414
v -0.052332 1.517458 -0.576414
v -0.052332 1.517458 -0.576414
v 0.115136 1.598368 -0.477414
v 0.115136 1.598368 -0.477414
v 0.115136 1.598368 -0.477414
v -0.443541 1.673954 -0.377056
v -0.443541 1.673954 -0.377056
v -0.443541 1.673954 -0.377056
v -0.425833 1.588080 -0.440934
v -0.425833 1.588080 -0.440934
v -0.425833 1.588080 -0.440934
v -0.494084 1.407147 -0.421373
v -0.494084 1.407147 -0.421373
v -0.494084 1.407147 -0.421373
v -0.504224 1.590101 -0.292439
v -0.504224 1.590101 -0.292439
v -0.504224 1.590101 -0.292439
v -0.510152 -1.450248 -0.332797
v -0.510152 -1.450248 -0.332797
v -0.510152 -1.450248 -0.332797
v -0.510152 -1.450248 -0.332797
v 0.000864 -1.893361 -0.000399
v 0.000864 -1.893361 -0.000399
v 0.000864 -1.893361 -0.000399
v 0.000864 -1.893361 -0.000399
v -0.142664 -1.834271 -0.001103
v -0.142664 -1.834271 -0.001103
v -0.142664 -1.834271 -0.001103
v -0.559833 -1.289543 0.147731
v -0.559833 -1.289543 0.147731
v -0.559833 -1.289543 0.147731
v -0.559833 -1.289543 0.147731
v 0.361958 -1.458168 0.185227
v 0.361958 -1.458168 0.185227
v 0.361958 -1.458168 0.185227
v 0.411368 -1.385036 0.159606
v 0.411368 -1.385036 0.159606
v 0.411368 -1.385036 0.159606
v 0.409006 -1.262836 0.229979
v 0.409006 -1.262836 0.229979
v 0.409006 -1.262836 0.229979
v 0.373952 -1.328541 0.260804
v 0.373952 -1.328541 0.260804
v 0.373952 -1.328541 0.260804
v 0.124843 -1.821399 -0.009725
v 0.124843 -1.821399 -0.009725
v 0.124843 -1.821399 -0.009725
v 0.387380 1.608495 -0.172640
v 0.387380 1.608495 -0.172640
v 0.387380 1.608495 -0.172640
v 0.416715 1.613519 0.083547
v 0.416715 1.613519 0.083547
v 0.416715 1.613519 0.083547
v 0.473214 1.381761 0.344918
v 0.473214 1.381761 0.344918
v 0.473214 1.381761 0.344918
v -0.142209 -1.417009 0.439575
v -0.142209 -1.417009 0.439575
v -0.142209 -1.417009 0.439575
v -0.051410 -1.553597 0.366116
v -0.051410 -1.553597 0.366116
v -0.051410 -1.553597 0.366116
v 0.061872 -1.369908 0.457160
v 0.061872 -1.369908 0.457160
v 0.061872 -1.369908 0.457160
v -0.072424 -1.040140 0.542834
v -0.072424 -1.040140 0.542834
v -0.072424 -1.040140 0.542834
v 0.325160 1.617297 0.381296
v 0.325160 1.617297 0.381296
v 0.325160 1.617297 0.381296
v -0.014207 1.614052 0.512273
v -0.014207 1.614052 0.512273
v -0.014207 1.614052 0.512273
v -0.119490 1.542401 0.553099
v -0.119490 1.542401 0.553099
v -0.119490 1.542401 0.553099
v -0.083979 -0.944706 0.545798
v -0.083979 -0.944706 0.545798
v -0.083979 -0.944706 0.545798
v -0.225911 -1.335571 0.433495
v -0.225911 -1.335571 0.433495
v -0.225911 -1.335571 0.433495
v 0.343976 1.694721 0.283619
v 0.343976 1.694721 0.283619
v 0.343976 1.694721 0.283619
v 0.185941 1.765145 -0.216128
v 0.185941 1.765145 -0.216128
v 0.185941 1.765145 -0.216128
v -0.091780 2.050855 -0.003669
v -0.091780 2.050855 -0.003669
v -0.091780 2.050855 -0.003669
v -0.091780 2.050855 -0.003669
v -0.029038 1.974987 0.095350
v -0.029038 1.974987 0.095350
v -0.029038 1.974987 0.095350
v -0.114135 1.680227 0.499194
v -0.114135 1.680227 0.499194
v -0.114135 1.680227 0.499194
v -0.133318 1.857381 -0.326879
v -0.133318 1.857381 -0.326879
v -0.133318 1.857381 -0.326879
v -0.167123 1.966533 -0.225927
v -0.167123 1.966533 -0.225927
v -0.167123 1.966533 -0.225927
v -0.220510 1.591119 -0.529874
v -0.220510 1.591119 -0.529874
v -0.220510 1.591119 -0.529874
v -0.463186 1.609254 0.333823
v -0.463186 1.609254 0.333823
v -0.463186 1.609254 0.333823
v -0.467685 1.763548 0.086978
v -0.467685 1.763548 0.086978
v -0.467685 1.763548 0.086978
v -0.528781 1.598406 -0.038179
v -0.528781 1.598406 -0.038179
v -0.528781 1.598406 -0.038179
v -0.566468 1.341824 0.191419
v -0.566468 1.341824 0.191419
v -0.566468 1.341824 0.191419
v -0.161142 1.611837 0.532133
v -0.161142 1.611837 0.532133
v -0.161142 1.611837 0.532133
vt 0.728006 0.557368
vt 0.681211 0.544790
vt 0.698007 0.483767
vt 0.897550 0.550369
vt 0.851151 0.552500
vt 0.848596 0.544255
vt 0.867662 0.495978
vt 0.949293 0.878429
vt 0.931021 0.874255
vt 0.923428 0.864566
vt 0.897550 0.550369
vt 0.943943 0.534364
vt 0.975421 0.871353
vt 0.667373 0.879037
vt 0.659510 0.869587
vt 0.664727 0.851643
vt 0.677956 0.869122
vt 0.681211 0.544790
vt 0.618757 0.529615
vt 0.686987 0.462671
vt 0.698007 0.483767
vt 0.848596 0.544255
vt 0.851151 0.552500
vt 0.846130 0.563270
vt 0.842449 0.554543
vt 0.943943 0.534364
vt 0.897550 0.550369
vt 0.867662 0.495978
vt 0.863742 0.478779
vt 0.897550 0.550369
vt 0.923428 0.864566
vt 0.906655 0.869765
vt 0.877358 0.868095
vt 0.853115 0.846292
vt 0.846130 0.563270
vt 0.851151 0.552500
vt 0.780624 0.528040
vt 0.807145 0.511379
vt 0.804881 0.542757
vt 0.787962 0.578485
vt 0.867662 0.495978
vt 0.848596 0.544255
vt 0.842449 0.554543
vt 0.804881 0.542757
vt 0.807145 0.511379
vt 0.863742 0.478779
vt 0.846130 0.563270
vt 0.853115 0.846292
vt 0.844157 0.869184
vt 0.804359 0.881935
vt 0.788747 0.870726
vt 0.788431 0.588919
vt 0.787962 0.578485
vt 0.804881 0.542757
vt 0.842449 0.554543
vt 0.686987 0.462671
vt 0.760907 0.496607
vt 0.780624 0.528040
vt 0.771538 0.541938
vt 0.728006 0.557368
vt 0.698007 0.483767
vt 0.788431 0.588919
vt 0.771538 0.541938
vt 0.780624 0.528040
vt 0.787962 0.578485
vt 0.858020 0.942224
vt 0.854874 0.875176
vt 0.877358 0.868095
vt 0.906655 0.869765
vt 0.914595 0.899367
vt 0.883450 0.957808
vt 0.858020 0.942224
vt 0.791754 0.899475
vt 0.804359 0.881935
vt 0.844157 0.869184
vt 0.854874 0.875176
vt 0.883450 0.957808
vt 0.914595 0.899367
vt 0.931021 0.874255
vt 0.949293 0.878429
vt 0.947298 0.934294
vt 0.926364 0.955468
vt 0.681220 0.930311
vt 0.658373 0.921920
vt 0.633249 0.876440
vt 0.659510 0.869587
vt 0.667373 0.879037
vt 0.659510 0.869587
vt 0.633249 0.876440
vt 0.613653 0.867073
vt 0.618757 0.529615
vt 0.681211 0.544790
vt 0.664727 0.851643
vt 0.746295 0.871739
vt 0.721370 0.886245
vt 0.706502 0.868748
vt 0.729955 0.841993
vt 0.681220 0.930311
vt 0.667373 0.879037
vt 0.677956 0.869122
vt 0.706502 0.868748
vt 0.721370 0.886245
vt 0.713883 0.945026
vt 0.706502 0.868748
vt 0.677956 0.869122
vt 0.664727 0.851643
vt 0.681211 0.544790
vt 0.728006 0.557368
vt 0.729955 0.841993
vt 0.785459 0.884076
vt 0.746295 0.871739
vt 0.729955 0.841993
vt 0.728006 0.557368
vt 0.771538 0.541938
vt 0.788431 0.588919
vt 0.788747 0.870726
vt 0.713883 0.945026
vt 0.721370 0.886245
vt 0.746295 0.871739
vt 0.785459 0.884076
vt 0.791754 0.899475
vt 0.737729 0.945411
vt 0.791754 0.899475
vt 0.785459 0.884076
vt 0.788747 0.870726
vt 0.804359 0.881935
vt 0.853115 0.846292
vt 0.877358 0.868095
vt 0.854874 0.875176
vt 0.844157 0.869184
vt 0.914595 0.899367
vt 0.906655 0.869765
vt 0.923428 0.864566
vt 0.931021 0.874255
vt 0.975421 0.871353
vt 0.989577 0.898267
vt 0.947298 0.934294
vt 0.949293 0.878429
vn -0.7699 -0.6249 0.1294
vn 0.8319 -0.5545 0.0214
vn 0.5422 0.0107 -0.8402
vn -0.8576 0.2382 -0.4559
vn -0.2564 -0.7516 -0.6078
vn 0.8238 -0.3075 0.4762
vn 0.8238 -0.3075 0.4763
vn 0.4352 -0.7103 -0.5533
vn 0.4352 -0.7102 -0.5533
vn 0.9969 0.0013 -0.0784
vn -0.0063 -0.3257 0.9455
vn -0.0063 -0.3256 0.9455
vn 0.4403 -0.6031 0.6652
vn 0.4403 -0.6031 0.6651
vn 0.4311 -0.0170 0.9022
vn 0.4311 -0.0170 0.9021
vn -0.5241 -0.6198 0.5841
vn -0.3393 -0.1664 0.9258
vn -0.3392 -0.1664 0.9259
vn -0.3393 -0.1664 0.9259
vn 0.6431 0.7628 -0.0681
vn 0.6430 0.7628 -0.0681
vn 0.2660 0.7335 0.6255
vn 0.2661 0.7335 0.6255
vn 0.2661 0.7334 0.6255
vn 0.4053 0.7403 -0.5364
vn -0.2669 0.6153 -0.7417
vn -0.2669 0.6153 -0.7418
vn -0.3769 -0.0183 -0.9261
vn -0.3768 -0.0183 -0.9261
vn -0.9515 0.2628 0.1601
vn -0.9516 0.2625 0.1601
vn -0.9515 0.2626 0.1601
vn -0.9515 0.2625 0.1601
vn -0.7182 0.6821 -0.1377
vn -0.9938 0.0030 -0.1109
vn -0.6291 -0.0191 0.7771
vn -0.3835 0.7514 0.5369
vn 0.1203 0.3575 0.9261
vn 0.1198 0.3576 0.9262
vn 0.1199 0.3576 0.9262
vn 0.8725 0.4118 0.2630
vn 0.8725 0.4118 0.2631
vn 0.6115 0.7230 -0.3216
vn 0.6113 0.7230 -0.3218
vn 0.1101 0.6051 -0.7885
vn 0.1102 0.6051 -0.7885
s off
f 45/1/1 34/2/1 41/3/1
f 9/4/2 52/5/2 50/6/2
f 9/4/2 50/6/2 62/7/2
s 1
f 20/8/3 2/9/3 4/10/3
f 4/10/3 8/11/3 14/12/3
f 14/12/3 17/13/3 20/8/3
f 4/10/3 14/12/3 20/8/3
f 21/14/4 24/15/4 28/16/4
f 21/14/4 28/16/4 31/17/4
f 36/18/5 12/19/5 38/20/5
f 36/18/5 38/20/5 43/21/5
f 49/22/6 51/23/7 55/24/7
f 49/22/6 55/24/7 59/25/7
f 13/26/8 7/27/8 60/28/9
f 13/26/8 60/28/9 39/29/9
f 10/30/10 6/31/10 65/32/10
f 65/32/10 68/33/10 71/34/10
f 71/34/10 56/35/10 53/36/10
f 53/36/10 10/30/10 65/32/10
f 65/32/10 71/34/10 53/36/10
f 74/37/11 76/38/12 78/39/12
f 74/37/11 78/39/12 82/40/11
f 61/41/13 48/42/13 58/43/13
f 58/43/13 80/44/14 77/45/14
f 77/45/14 40/46/13 61/41/13
f 58/43/13 77/45/14 61/41/13
f 54/47/15 69/48/15 85/49/15
f 85/49/15 89/50/15 92/51/15
f 92/51/15 95/52/15 83/53/16
f 83/53/16 79/54/15 57/55/15
f 57/55/15 54/47/15 85/49/15
f 85/49/15 92/51/15 83/53/16
f 85/49/15 83/53/16 57/55/15
f 37/56/17 75/57/17 72/58/17
f 72/58/17 97/59/17 47/60/17
f 47/60/17 42/61/17 37/56/17
f 72/58/17 47/60/17 37/56/17
f 94/62/18 98/63/19 73/64/19
f 94/62/18 73/64/19 81/65/20
f 111/66/21 100/67/21 66/68/21
f 66/68/21 64/69/21 104/70/22
f 104/70/22 108/71/21 111/66/21
f 66/68/21 104/70/22 111/66/21
f 110/72/23 114/73/24 88/74/25
f 88/74/25 84/75/25 99/76/24
f 88/74/25 99/76/24 110/72/23
f 107/77/26 102/78/26 1/79/26
f 1/79/26 19/80/26 117/81/26
f 117/81/26 120/82/26 107/77/26
f 1/79/26 117/81/26 107/77/26
f 119/83/27 115/84/27 122/85/27
f 122/85/27 26/86/27 23/87/28
f 122/85/27 23/87/28 119/83/27
f 25/88/29 121/89/30 15/90/30
f 15/90/30 11/91/30 35/92/30
f 35/92/30 29/93/30 25/88/29
f 15/90/30 35/92/30 25/88/29
f 124/94/31 127/95/32 131/96/33
f 124/94/31 131/96/33 134/97/34
f 118/98/35 22/99/35 32/100/35
f 32/100/35 132/101/35 128/102/35
f 128/102/35 105/103/35 118/98/35
f 32/100/35 128/102/35 118/98/35
f 130/104/36 30/105/36 27/106/36
f 27/106/36 33/107/36 44/108/36
f 44/108/36 133/109/36 130/104/36
f 27/106/36 44/108/36 130/104/36
f 136/110/37 125/111/37 135/112/37
f 135/112/37 46/113/37 96/114/37
f 96/114/37 93/115/37 90/116/37
f 90/116/37 136/110/37 135/112/37
f 135/112/37 96/114/37 90/116/37
f 106/117/38 129/118/38 126/119/38
f 126/119/38 137/120/38 112/121/38
f 112/121/38 109/122/38 106/117/38
f 126/119/38 112/121/38 106/117/38
f 113/123/39 138/124/40 91/125/41
f 113/123/39 91/125/41 87/126/40
f 70/127/42 67/128/43 101/129/43
f 70/127/42 101/129/43 86/130/42
f 103/131/44 63/132/45 5/133/45
f 103/131/44 5/133/45 3/134/45
f 16/135/46 123/136/47 116/137/47
f 16/135/46 116/137/47 18/138/47
