# Blender v3.4.1 OBJ File: ''
# www.blender.org
o Cube_Cube.004
v 0.009608 -0.733777 -1.071347
v 0.009608 -0.733777 -1.071347
v 0.009608 -0.733777 -1.071347
v 0.009608 -0.733777 -1.071347
v -0.038529 -0.735000 -1.064260
v -0.038529 -0.735000 -1.064260
v -0.038529 -0.735000 -1.064260
v -0.038529 -0.735000 -1.064260
v -0.037311 -0.703251 -1.085909
v -0.037311 -0.703251 -1.085909
v -0.037311 -0.703251 -1.085909
v -0.037311 -0.703251 -1.085909
v 0.011830 -0.699331 -1.087381
v 0.011830 -0.699331 -1.087381
v 0.011830 -0.699331 -1.087381
v 0.011830 -0.699331 -1.087381
v -0.038317 -0.775136 0.965690
v -0.038317 -0.775136 0.965690
v -0.038317 -0.775136 0.965690
v -0.038317 -0.775136 0.965690
v 0.009821 -0.774028 0.964416
v 0.009821 -0.774028 0.964416
v 0.009821 -0.774028 0.964416
v 0.009821 -0.774028 0.964416
v 0.012372 -0.740096 0.981173
v 0.012372 -0.740096 0.981173
v 0.012372 -0.740096 0.981173
v 0.012372 -0.740096 0.981173
v -0.039364 -0.743289 0.983346
v -0.039364 -0.743289 0.983346
v -0.039364 -0.743289 0.983346
v -0.039364 -0.743289 0.983346
v -0.016055 1.422359 0.010313
v -0.016055 1.422359 0.010313
v -0.016055 1.422359 0.010313
v -0.016055 1.422359 0.010313
v 0.035731 1.430221 0.006045
v 0.035731 1.430221 0.006045
v 0.035731 1.430221 0.006045
v 0.035731 1.430221 0.006045
v 0.035411 1.431608 -0.025350
v 0.035411 1.431608 -0.025350
v 0.035411 1.431608 -0.025350
v 0.035411 1.431608 -0.025350
v -0.013713 1.428996 -0.023224
v -0.013713 1.428996 -0.023224
v -0.013713 1.428996 -0.023224
v -0.013713 1.428996 -0.023224
v 1.314066 0.088589 0.003669
v 1.314066 0.088589 0.003669
v 1.314066 0.088589 0.003669
v 1.314066 0.088589 0.003669
v 1.310906 0.054268 -0.012631
v 1.310906 0.054268 -0.012631
v 1.310906 0.054268 -0.012631
v 1.310906 0.054268 -0.012631
v 1.314281 0.089414 -0.027725
v 1.314281 0.089414 -0.027725
v 1.314281 0.089414 -0.027725
v 1.314281 0.089414 -0.027725
v -1.255981 -0.044050 0.134924
v -1.255981 -0.044050 0.134924
v -1.255981 -0.044050 0.134924
v -1.255981 -0.044050 0.134924
v -1.257597 -0.042093 0.101785
v -1.257597 -0.042093 0.101785
v -1.257597 -0.042093 0.101785
v -1.257597 -0.042093 0.101785
v -1.253505 -0.076718 0.118265
v -1.253505 -0.076718 0.118265
v -1.253505 -0.076718 0.118265
v -1.253505 -0.076718 0.118265
vt 0.381749 0.098266
vt 0.574316 0.005477
vt 0.567225 0.188711
vt 0.503388 0.455219
vt 0.599238 0.801223
vt 0.390248 0.682782
vt 0.597064 0.811502
vt 0.378346 0.993421
vt 0.378346 0.802871
vt 0.381770 0.682958
vt 0.383536 0.679736
vt 0.386892 0.680402
vt 0.870050 0.560511
vt 0.867945 0.559749
vt 0.870392 0.556133
vt 0.496575 0.452375
vt 0.165159 0.619893
vt 0.163914 0.617416
vt 0.494383 0.450376
vt 0.165159 0.619893
vt 0.383536 0.679736
vt 0.381368 0.683370
vt 0.162889 0.623499
vt 0.610542 0.799635
vt 0.867945 0.559749
vt 0.870796 0.560972
vt 0.614211 0.800095
vt 0.867945 0.559749
vt 0.663189 0.501785
vt 0.870589 0.555902
vt 0.383536 0.679736
vt 0.496575 0.452375
vt 0.503388 0.455219
vt 0.390248 0.682782
vt 0.659638 0.505394
vt 0.610542 0.799635
vt 0.606049 0.801459
vt 0.655115 0.507399
vt 0.390248 0.682782
vt 0.599238 0.801223
vt 0.597935 0.804951
vt 0.389033 0.686559
vt 0.379841 0.095375
vt 0.572824 0.002385
vt 0.574316 0.005477
vt 0.381749 0.098266
vt 0.381749 0.098266
vt 0.567225 0.188711
vt 0.565960 0.195200
vt 0.380702 0.104861
vt 0.380702 0.104861
vt 0.565960 0.195200
vt 0.503201 0.434705
vt 0.496575 0.452375
vt 0.383536 0.679736
vt 0.165159 0.619893
vt 0.867945 0.559749
vt 0.610542 0.799635
vt 0.659638 0.505394
vt 0.655936 0.504354
vt 0.662992 0.502015
vt 0.659638 0.505394
vt 0.655115 0.507399
vt 0.163914 0.617416
vt 0.165159 0.619893
vt 0.163292 0.623088
vt 0.161240 0.619058
vt 0.613465 0.799634
vt 0.605786 0.803035
vt 0.606049 0.801459
vt 0.610542 0.799635
vt 0.659638 0.505394
vn -0.3693 0.3842 0.8462
vn 0.4195 0.4012 -0.8143
vn 0.3933 0.3733 0.8402
vn 0.9956 -0.0937 0.0044
vn -0.9943 -0.0972 0.0428
vn 0.0225 -0.9996 -0.0198
vn 0.6958 -0.3594 0.6219
vn -0.7583 0.6476 0.0752
vn -0.7436 -0.3570 -0.5653
vn 0.7083 -0.3349 -0.6213
vn 0.7083 -0.3349 -0.6214
vn -0.0623 0.4457 -0.8930
vn 0.7238 0.6896 0.0231
vn 0.0130 0.4097 0.9121
vn -0.6659 -0.3784 0.6430
vn -0.4892 -0.8720 -0.0172
vn 0.5279 -0.8491 -0.0168
vn -0.5292 0.3832 -0.7570
vn -0.0505 -0.4921 -0.8691
vn 0.0505 -0.4639 0.8844
vn 0.0505 -0.4639 0.8845
vn 0.0505 -0.4638 0.8845
vn -0.0950 0.9883 0.1192
vn -0.0950 0.9883 0.1191
s off
f 31/1/1 33/2/1 62/3/1
f 13/4/2 42/5/2 59/6/2
f 38/7/3 27/8/3 49/9/3
f 51/10/4 55/11/4 57/12/4
f 63/13/5 65/14/5 71/15/5
f 1/16/6 22/17/6 18/18/6
f 1/16/6 18/18/6 5/19/6
f 23/20/7 53/21/7 50/22/7
f 23/20/7 50/22/7 25/23/7
f 45/24/8 66/25/8 64/26/8
f 45/24/8 64/26/8 36/27/8
f 67/28/9 8/29/9 72/30/9
f 56/31/10 3/32/10 14/33/10
f 56/31/11 14/33/11 60/34/11
f 12/35/12 48/36/12 44/37/12
f 12/35/12 44/37/12 16/38/12
f 58/39/13 41/40/13 39/41/13
f 58/39/13 39/41/13 52/42/13
f 28/43/14 37/44/14 34/45/14
f 28/43/14 34/45/14 32/46/14
f 30/47/15 61/48/15 69/49/15
f 30/47/15 69/49/15 19/50/15
f 20/51/16 70/52/16 6/53/16
s 1
f 2/54/17 54/55/17 24/56/17
f 68/57/18 47/58/18 10/59/18
f 4/60/19 7/61/19 11/62/19
f 4/60/19 11/62/19 15/63/19
f 17/64/20 21/65/21 26/66/22
f 17/64/20 26/66/22 29/67/21
f 35/68/23 40/69/24 43/70/23
f 35/68/23 43/70/23 46/71/23
f 67/28/9 9/72/9 8/29/9
